<svg xmlns="http://www.w3.org/2000/svg" viewBox="0 0 32 32" width="32" height="32">
  <defs>
    <linearGradient id="grad1" x1="0%" y1="0%" x2="100%" y2="100%">
      <stop offset="0%" style="stop-color:#7c3aed;stop-opacity:1" />
      <stop offset="100%" style="stop-color:#a855f7;stop-opacity:1" />
    </linearGradient>
  </defs>
  <!-- Brain shape with card elements -->
  <path d="M16 4c-6.627 0-12 4.373-12 8.5 0 2.127 1.04 4.08 2.8 5.6.48.416.8.92.8 1.5v2.4c0 1.1.9 2 2 2h13.6c1.1 0 2-.9 2-2v-2.4c0-.58.32-1.084.8-1.5C27.96 16.58 28 14.627 28 12.5 28 8.373 22.627 4 16 4z" fill="url(#grad1)" stroke="#5b21b6" stroke-width="1"/>
  <!-- Card stack elements -->
  <rect x="10" y="12" width="4" height="6" rx="1" fill="white" opacity="0.9"/>
  <rect x="12" y="10" width="4" height="6" rx="1" fill="white" opacity="0.7"/>
  <rect x="14" y="8" width="4" height="6" rx="1" fill="white" opacity="0.5"/>
  <!-- Neural connection dots -->
  <circle cx="8" cy="10" r="1.5" fill="white" opacity="0.8"/>
  <circle cx="24" cy="10" r="1.5" fill="white" opacity="0.8"/>
  <circle cx="12" cy="16" r="1" fill="white" opacity="0.6"/>
  <circle cx="20" cy="16" r="1" fill="white" opacity="0.6"/>
</svg> 